<?xml version="1.0" standalone="no"?>
<!DOCTYPE svg PUBLIC "-//W3C//DTD SVG 20010904//EN"
 "http://www.w3.org/TR/2001/REC-SVG-20010904/DTD/svg10.dtd">
<svg version="1.0" xmlns="http://www.w3.org/2000/svg"
 width="2000.000000pt" height="2000.000000pt" viewBox="0 0 2000.000000 2000.000000"
 preserveAspectRatio="xMidYMid meet">
<metadata>
Created by potrace 1.16, written by Peter Selinger 2001-2019
</metadata>
<g transform="translate(0.000000,2000.000000) scale(0.100000,-0.100000)"
fill="#000000" stroke="none">
<path d="M7024 14991 c-2 -2 -4 -154 -4 -338 l0 -333 -165 0 -165 0 0 -330 c0
-307 -1 -330 -17 -332 -10 -1 -25 -2 -33 -4 -8 -1 -77 -2 -152 -3 l-138 -1 0
-1002 0 -1003 -165 3 -165 3 0 -335 0 -336 -157 0 c-87 0 -164 -4 -171 -8 -10
-7 -12 -249 -10 -1178 l3 -1169 168 -3 167 -2 0 -330 0 -330 -170 0 -170 0 0
-335 0 -335 -500 0 -499 0 -3 -170 -3 -170 837 0 838 0 2 -166 3 -165 670 0
670 1 3 165 2 165 2340 0 2340 0 0 -167 0 -168 840 3 840 2 0 165 0 165 670 0
670 0 0 170 0 170 -499 0 -499 0 -7 73 c-4 39 -5 190 -3 335 l3 262 -167 0
-168 0 0 165 0 165 168 2 167 3 2 665 2 665 166 3 165 2 0 335 0 335 168 0
167 0 -3 302 c-2 167 0 318 3 336 l6 32 165 0 164 0 -2 670 -3 670 -330 3
-330 2 -3 168 -2 167 -1005 0 -1005 0 0 165 0 165 -332 2 -333 3 -3 168 -2
167 -500 0 -500 0 -2 168 -3 167 -835 1 -835 2 -3 166 -2 166 -165 0 -165 0 0
165 0 165 -170 0 -171 0 2 168 1 167 -336 3 -336 2 0 165 0 165 -501 2 c-275
2 -503 1 -505 -1z m1006 -506 l0 -165 335 0 335 0 0 -170 0 -170 165 0 165 0
0 -165 0 -165 170 0 170 0 0 -172 0 -171 835 7 835 7 0 -170 0 -171 505 0 505
0 0 -167 0 -168 335 3 335 3 0 -171 0 -170 1003 -2 1002 -3 3 -162 2 -163 165
0 165 0 0 -505 0 -505 -165 0 -165 0 -2 -332 -3 -333 -167 -3 -168 -2 0 -335
0 -335 -165 0 -165 0 0 -670 0 -670 -170 0 -170 0 0 -165 0 -165 170 0 170 0
0 -499 0 -499 -22 -3 c-13 -2 -390 -4 -838 -4 l-815 0 -3 168 -2 167 -2340 0
-2340 0 -2 -167 -3 -168 -665 1 -665 1 -3 167 -2 166 -170 0 -170 0 0 335 0
335 170 0 170 0 0 335 0 335 -170 0 -170 0 0 1170 0 1170 168 2 167 3 5 330 5
330 163 3 162 2 0 1005 0 1005 170 0 170 0 0 335 0 335 165 0 165 0 0 165 0
165 335 0 335 0 0 -165z"/>
<path d="M8370 11135 l0 -166 163 2 162 1 3 -171 2 -171 -154 0 c-85 0 -161 3
-170 6 -14 5 -16 30 -16 170 l0 164 -165 0 -165 0 0 -500 0 -500 170 0 170 0
0 -165 0 -165 500 0 500 0 0 165 0 165 165 0 165 0 0 500 0 500 -165 0 -165 0
0 165 0 165 -500 0 -500 0 0 -165z"/>
<path d="M12050 10474 c0 -145 2 -163 17 -169 10 -3 85 -5 168 -4 147 2 149 2
148 -20 0 -11 -1 -88 -2 -170 l-1 -150 -165 2 -166 2 -2 165 -2 165 -162 3
-163 2 0 -500 0 -500 165 0 165 0 0 -167 0 -168 500 -2 500 -2 0 169 0 170
165 0 165 0 0 500 0 500 -165 0 -165 0 0 168 0 167 -500 0 -500 0 0 -161z"/>
<path d="M10678 9962 l-298 -2 0 -160 0 -160 330 0 330 0 0 163 0 162 -33 0
c-17 0 -166 -1 -329 -3z"/>
<path d="M9376 9292 c-4 -3 -6 -78 -6 -166 l0 -161 165 0 165 0 0 168 0 168
-159 -2 c-88 -1 -162 -4 -165 -7z"/>
<path d="M10380 9132 l0 -167 163 0 162 0 3 -167 2 -168 335 0 335 0 0 165 0
165 -335 0 -335 0 -2 168 -3 167 -162 2 -163 2 0 -167z"/>
<path d="M9710 8795 l0 -165 330 0 330 0 0 165 0 165 -330 0 -330 0 0 -165z"/>
</g>
</svg>
